Patient4_TMGait_0pt4_01_right_02_EMG.mot
version=1
nRows=40
nColumns=33
inDegrees=no
endheader
time	1LAddLong	2LGlutMax	3LGlutMed	4LIliopsoas	5LSemiMemb	6LBicFemLong	7LRecFem	8LVastMed	9LVastLat	10LGasMed	11LTibAnt	12lTibPost	13LPeroneusLong	14LSol	15LExtDigLong	16LFlexDigLong	17RAddLong	18RGlutMax	19RGlutMed	20RIliopsoas	21RSemiMemb	22RBicFemLong	23RRecFem	24RVastMed	25RVastLat	26RGasMed	27RTibAnt	28RTibPost	29RPeroneusLong	30RSol	31RExtDigLong	32RFlexDigLong
2.07	0.024109	-0.07431	-0.020599	0.005646	0.055542	-0.33157	-0.024872	0.005951	-0.001984	0.25192	-0.036621	-0.008698	0.28107	0.004425	0.16296	-0.009308	0.001831	-0.089264	0.61157	-0.1001	0.041199	-0.057831	0.2002	-0.03479	0.016479	-0.007477	-0.52139	-0.010529	-0.052032	-0.055847	0.001526	-0.006714
2.071	0.011749	-0.082245	0.021515	0.010834	0.065918	-0.24902	0.008392	0.009308	-0.022278	0.12131	-0.021362	-0.007935	-0.17822	0.038757	0.24002	-0.011292	0.00412	-0.06958	0.46081	-0.076599	0.049133	-0.045166	0.26871	0.04715	0.033569	0.00061	-0.24246	-0.002899	0.36072	-0.089111	0.011749	-0.007629
2.072	0.008392	-0.15747	-0.1918	0.020752	0.02655	-0.42755	0.017395	0.001526	-0.006714	0.12772	0.07019	0.003967	-0.54886	0.01358	0.26245	0.00351	0.002899	-0.089569	0.21393	-0.042114	0.047302	-0.042267	0.21286	0.027924	0.032959	0.00885	-0.089417	-0.010223	0.3862	-0.1474	0.002747	-0.004883
2.073	0.017242	-0.092773	0.014038	-0.014343	-0.001678	-0.14984	-0.042419	0.002899	-0.012207	-0.034027	0.063934	0.015106	-0.013885	0.039063	-0.020294	0.010681	0.004272	-0.022583	0.26398	-0.071106	0.049744	-0.043335	0.1651	0.001984	0.011902	0.007477	0.28595	-0.014496	-0.018768	-0.066681	0.000305	0.002747
2.074	0.006866	-0.057678	0.32105	-0.024719	0.008545	-0.04425	-0.011902	-0.007172	-0.007019	-0.13077	-0.011597	0.021057	1.6431	-0.001221	-0.16419	0.000153	-0.015411	0.040283	0.39322	-0.095215	0.047455	-0.01236	0.10544	0.070953	-0.003052	0.001373	0.59204	-0.010376	-0.47867	0.006561	0.000305	-0.00824
2.075	0.004883	-0.15701	0.11993	-0.028229	0.003967	0.050507	0.043182	-0.002289	-0.046692	-0.18509	0.002899	0.017242	0.56091	-0.065918	-0.13504	0.003662	0.032959	-0.10696	0.18021	-0.083466	0.04715	-0.022583	0.088043	0.042877	0.000305	-0.009613	0.61859	-0.016632	-0.94727	0.037537	-0.000916	-0.009155
2.076	0.010529	-0.13886	0.18341	-0.020905	0.037689	0.011749	0.035248	0.000153	-0.036011	0.002747	-0.059967	0.00061	-0.73837	0.017853	-0.10101	0.01358	0.075226	-0.11551	0.14008	-0.049438	0.052185	-0.005493	0.18372	0.029755	-0.00412	-0.001678	0.61691	-0.014954	-0.27176	0.020599	-0.001373	-0.010223
2.077	0.009613	-0.1178	0.090942	0.006409	0.045013	0.095825	0.050659	0.001526	-0.007019	0.12207	-0.058746	-0.010223	-0.70892	-0.054626	0.16083	-0.001831	0.063629	-0.085907	0.11108	-0.016937	0.038452	-0.015564	0.22614	0.028534	-0.017548	-0.002289	0.29816	-0.00885	0.024719	-0.046082	0.002441	-0.00824
2.078	0.008698	-0.11444	-0.011292	0.00946	0.021667	0.002289	0.046234	0.000153	0.035706	0.12878	-0.026245	-0.012054	-0.020752	-0.23178	0.12421	-0.003662	0.050964	-0.039215	0.42419	-0.00946	0.025635	-0.018921	0.15381	-0.087128	-0.010529	0.00351	-0.07019	-0.004883	0.24674	-0.017395	0.004425	-0.00473
2.079	0.005646	-0.10834	-0.042267	-0.020294	0.00885	-0.10712	0.12192	0.002289	0.036774	0.003662	0.02182	-0.00824	-0.001221	-0.16129	-0.14008	0.007782	0.012207	-0.055542	0.25818	0.006104	0.022736	-0.018463	0.10681	-0.068207	-0.028992	-0.003357	-0.34164	-0.010376	0.33844	0.025177	0.005035	-0.013885
2.08	-0.000305	-0.09613	0.032501	-0.001678	-0.025024	0.054626	0.13809	0.009003	0.011597	-0.11597	0.031738	0.000458	-0.17792	-0.17853	-0.24384	-0.005035	-0.011139	-0.072327	0.095367	0.017395	0.024261	-0.014343	0.094604	-0.10544	-0.021667	-0.015259	-0.48202	-0.007172	-0.37705	0.014648	0.000153	0.001068
2.081	-0.004272	-0.055084	0.3624	0.020599	-0.065918	0.12848	0.00412	0.01236	-0.033264	-0.016785	0.08316	-0.00061	-0.48019	-0.23605	-0.14557	-0.011444	-0.013885	-0.049286	0.22461	-0.094604	0.022583	-0.032349	0.070648	-0.14801	-0.014648	-0.013733	-0.3305	-0.009308	-0.18997	0.018158	0.000763	-0.002594
2.082	-0.012207	-0.073853	0.29236	0.01297	-0.063782	0.16205	0.039825	0.009766	0.014496	0.014343	0.065002	0.010223	-0.10468	-0.14252	-0.008392	-0.014191	-0.02182	-0.00351	0.092468	-0.13611	0.017548	-0.030365	0.022583	-0.081635	-0.034943	-0.010376	-0.1944	0.001831	-0.57648	-0.029144	0.002899	-0.000458
2.083	-0.018616	-0.12909	0.15411	-0.028992	0.027771	-0.11063	0.050812	0.009766	0.026398	0.012207	0.006714	0.005493	-0.55588	-0.1326	-0.070648	-0.014191	-0.019226	-0.053864	-0.13153	-0.039978	0.0177	-0.024261	0.03891	-0.089569	-0.026703	-0.00824	-0.009003	-0.011597	-0.70038	-0.11734	0.003662	-0.000458
2.084	-0.028381	-0.10071	0.17593	-0.010681	0.050812	-0.16861	0.00473	0.012207	0.070343	0.14191	-0.12619	0.006714	0.11047	-0.12985	0.034485	-0.001984	-0.028381	-0.050354	0.11169	0.055847	0.026093	-0.024872	0.085754	-0.094604	-0.021362	-0.012512	0.14557	0	0.14221	-0.02243	0.000916	-0.002594
2.085	-0.034943	-0.091553	0.072327	0.001984	-0.12116	-0.13702	0.018768	0.016937	0.095978	0.31281	-0.15091	-0.007172	0.053864	0.12863	0.13306	0.007324	0.009308	-0.054016	0.36407	0.027161	0.023956	-0.007324	0.18997	-0.079803	-0.020447	-0.015564	0.17792	-0.001373	0.12329	-0.003204	0.001373	-0.009003
2.086	-0.018158	-0.12283	-0.023956	0.005798	-0.25635	-0.050049	0.014343	0.004883	0.19684	0.38483	-0.059814	-0.007324	-0.042114	0.24918	0.21332	0.003204	0.018158	-0.041199	0.45349	-0.016479	0.04837	-0.024109	0.27008	-0.032806	-0.018005	-0.014343	0.37567	-0.007782	0.058899	-0.11551	0.001526	-0.002289
2.087	0.006409	-0.083466	0.14587	0.010834	-0.21378	-0.014801	0.045776	-0.003662	0.032959	0.42496	0.070953	-0.010376	-0.17212	0.19287	0.14481	0.000458	0.007019	-0.07019	0.18814	0.033417	0.0383	-0.005951	0.14969	-0.022125	0.010986	-0.018463	0.4837	-0.006256	-0.06897	-0.12543	0.003357	-0.007019
2.088	0.033722	-0.080719	0.14648	0.016327	0.090942	0.08316	0.027618	-0.011902	0.03006	0.28885	0.066986	-0.013885	-0.21286	0.17532	0.081787	-0.005798	-0.004578	-0.13001	-0.1355	0.049133	0.026855	-0.015259	0.12009	-0.052032	0.000305	-0.02182	0.40131	-0.004578	-0.12314	-0.046234	0.000305	-0.013733
2.089	0.043793	-0.079041	0.11795	-0.002594	0.18097	0.010529	0.058746	-0.015564	0.006714	-0.07019	0.009155	-0.012054	-0.074463	-0.005798	0.090179	0.003204	-0.005493	-0.14175	-0.14404	0.10254	0.023041	-0.006866	0.086975	-0.063019	-0.003357	-0.022278	0.095978	-0.001373	-0.066071	-0.040436	-0.001221	-0.01236
2.09	0.043335	-0.04837	0.085754	0.003967	0.18555	-0.021667	0.059052	-0.014648	-0.005646	-0.39398	-0.011749	-0.010223	0.06012	-0.15076	-0.01236	0.007477	-0.012817	-0.10666	0.005341	0.093079	0.027618	0.010529	0.12497	-0.060425	0	-0.009613	-0.27191	-0.00351	0.037994	-0.045929	0.000763	-0.012054
2.091	0.026245	-0.041962	0.021973	0.002594	0.12985	0.008698	0.071106	0.001984	-0.022125	0.18921	0.014038	-0.007477	0.033264	-0.099182	-0.016785	0.006866	-0.029602	-0.10757	0.067139	0.12085	0.044708	0.022583	0.13031	-0.032501	0.003357	-0.007324	-0.38666	-0.009003	0.16693	-0.065918	0.000458	-0.005798
2.092	0.014496	-0.061798	-0.045166	0.016632	0.097504	0.029755	0.092468	0.011597	-0.069733	0.28931	0.005646	0.002441	0.17807	0.057983	-0.002899	0.019379	-0.011292	-0.10712	0.066986	0.09079	0.031128	0.002747	0.061798	-0.052795	0.008698	0.001068	-0.57358	-0.002136	0.077057	-0.10071	-0.000763	-0.009766
2.093	0.013123	-0.063934	-0.029907	0.006256	0.074158	0.007324	0.10635	0.00824	-0.079041	-0.47363	-0.003204	0.019531	0.07431	0.095062	-0.007477	0.012665	0.022125	-0.086517	0.039978	0.059967	0.035248	-0.000305	0.038605	-0.055389	0.013733	0.010986	-0.9111	-0.002899	0.45548	-0.17807	0.012817	0.002899
2.094	0.005951	-0.00473	0.15579	0.009003	0.073853	0.060883	0.044403	0.013275	-0.021515	-0.1532	0.011139	0.026855	-0.09079	-0.014496	-0.006409	-0.006866	0.032654	-0.032043	0.063629	0.045319	0.041504	0.014801	-0.013885	-0.050201	0.010223	0.00473	-0.73959	-0.00473	0.28442	-0.13626	0.002136	-0.007324
2.095	-0.010223	-0.031586	0.090637	0.001831	0.056763	0.098724	0.033875	0.016479	0.03952	-0.15381	0.045319	0.019684	-0.006866	-0.11169	-0.033264	-0.035706	0.02533	-0.056763	0.14069	0.030518	0.040283	0.022736	-0.040741	-0.028076	-0.004578	-0.002136	-0.30106	-0.003204	-0.24139	-0.069122	-0.001526	-0.010986
2.096	-0.005035	-0.01236	0.040436	0.00412	0.031128	0.077667	0.076447	0.007782	0.13443	-0.19226	0.043945	0.004425	-0.040588	-0.092621	-0.036316	-0.022583	0.016327	-0.089264	0.28656	0.033112	0.041046	0.018768	-0.11429	-0.028839	0.000153	-0.00061	0.14679	-0.003967	-0.22324	0.034943	0.001068	-0.001831
2.097	-0.00946	-0.013733	0.034027	0.015106	0.00885	0.057068	0.073395	0.009003	0.15732	-0.007477	0.011292	0.000763	-0.007629	-0.00412	-0.073242	-0.00824	0.002594	-0.076599	0.35263	0.048676	0.051117	0.006256	-0.13977	-0.046234	-0.018463	-0.004272	0.19501	-0.000153	-0.12619	0.17136	-0.000153	0.001678
2.098	-0.017395	0.007629	0.027008	0.009003	-0.018463	0.031128	0.096893	-0.003662	-0.014343	0.11307	0.000305	-0.002594	0.053864	0.000458	-0.11154	-0.007935	-0.003967	-0.054626	0.030975	0.037231	0.043488	0.013275	-0.081329	-0.080109	-0.010986	-0.009766	0.28183	-0.004578	-0.12528	0.11215	-0.00061	-0.000916
2.099	-0.00412	0.029297	0.013275	0.018311	-0.055389	0.008392	0.089569	0.00061	-0.10773	0.13519	-0.013733	0.001373	0.027466	0.010681	-0.074158	-0.004272	-0.020294	-0.009003	0.017548	0.014648	0.045166	-0.017548	0.006714	-0.041046	-0.016479	-0.008392	0.60699	-0.003815	-0.091858	0.001068	-0.001678	0.005341
2.1	0.007019	0.050812	-0.010223	0.014343	-0.083008	-0.005035	0.1239	0.000916	0.037842	0.1181	-0.036163	-0.00473	0.22507	0.10986	0.002747	-0.001678	-0.0177	-0.096588	0.11414	-0.007324	0.0354	0.001526	0.008392	-0.08194	0.002136	-0.001221	0.73761	-0.001678	-0.090179	-0.023651	-0.003357	0.001221
2.101	0.004425	0.054016	-0.03479	-0.007324	-0.053253	-0.033722	0.22934	-0.003357	0.044098	-0.009155	-0.019379	0	-0.25665	0.12161	0.022736	-0.005798	-0.023499	-0.039673	0.23743	-0.05188	0.032501	-0.011139	0.010986	-0.1033	-0.009155	0.005646	0.78339	-0.001678	-0.15854	-0.058441	-0.001068	0.003357
2.102	0.000763	0.017853	-0.003052	-0.007019	-0.02655	-0.13657	0.21515	-0.00061	-0.005798	-0.063782	0.037842	-0.002594	0.16113	0.11749	0.023499	0.00351	-0.021057	-0.044098	0.31113	-0.048523	0.018921	0.004578	0.00946	-0.091095	-0.010223	0	0.67413	-0.001373	-0.1149	-0.050354	-0.00061	-0.001678
2.103	0.008545	0.030212	0.021973	0.006866	-0.005493	-0.12192	0.22247	-0.005188	-0.009003	-0.02243	0.11429	-0.002441	0.11124	0.13184	-0.081024	-0.002747	-0.024567	0.010223	-0.15549	-0.11444	0.024414	0.00885	0.042877	-0.078125	-0.010986	0.001984	0.13184	-0.00473	0.017548	-0.00885	-0.003052	-0.002441
2.104	0.010071	0.057373	-0.055695	0.000305	0.12421	-0.067444	0.20981	0.001831	-0.031128	-0.036469	0.099182	0.000763	0.47836	0.27023	-0.019226	0.007019	-0.015106	-0.035553	-0.18784	-0.075684	0.0354	-0.010376	0.036163	-0.096893	0	0.005798	-0.32806	-0.006714	0.085297	-0.008392	0.000305	-0.010223
2.105	0.016785	0.062103	-0.044098	0.002594	0.11261	-0.033112	0.21622	0.011749	-0.08667	0.13245	0.20737	0.001068	0.18921	0.15839	0.016937	0.006714	-0.016632	-0.041351	0.028381	-0.063324	0.042114	0.018921	0.081177	-0.087128	0.008545	-0.000458	-0.35339	-0.008545	-0.022125	-0.014954	-0.004425	-0.010681
2.106	0.007172	0.07782	-0.04303	0.009155	0.067291	0.024109	0.24979	0.0177	-0.16144	0.35599	0.086212	0.003662	-0.33264	0.14328	0.27206	-0.00473	-0.013123	-0.016022	0.15274	-0.029449	0.055542	0.015564	0.012054	-0.065155	0.014801	-0.007935	-0.63141	-0.00473	-0.043793	-0.018616	-0.002594	-0.018158
2.107	-0.041199	0.097656	-0.017548	0.022888	0.030365	0.024414	0.12268	0.024719	-0.072479	0.41061	-0.098572	0.002594	-0.3508	0.15137	-0.044098	0.004425	-0.015106	-0.045624	0.30838	0.05722	0.041962	0.028381	0.036316	-0.075226	0.016327	-0.008545	-0.36804	-0.002289	0.041809	-0.04715	-0.002441	-0.018311
2.108	0.030212	0.12299	0.006866	0.019684	0.022125	-0.000458	0.069122	0.021057	0.13306	0.37705	-0.087585	0.015106	-0.052185	0.12192	0.04364	0.00473	0.006714	-0.054626	0.42358	0.10483	0.043182	0.009918	0.060577	-0.069427	0.000305	-0.008545	-0.071106	-0.008698	-0.019989	-0.05249	-0.001678	-0.009918
2.109	-0.017853	0.10895	-0.063934	-0.00061	0.012665	0.01358	0.086517	0.020447	0.11246	0.18951	-0.093689	0.008698	0.16693	0.12131	0.017395	0.006561	0.010834	-0.036926	0.25864	0.081635	0.050354	0.009918	0.027313	-0.063934	0.010223	-0.014038	0.02121	-0.00473	0.037842	-0.01709	0.00061	-0.016327
